<svg xmlns="http://www.w3.org/2000/svg" viewBox="0 0 100 100"><path d="M60 64 Q95 59 80 89 Q78 77 55 82" fill="#efa8c6" stroke="#c4779c" stroke-width="2"/><ellipse cx="49" cy="75" rx="21" ry="17" fill="#ffcce0"/><path d="M31 74l-10 9m45-9 9 9" stroke="#f4a4c7" stroke-width="9" stroke-linecap="round"/><g stroke="#ec83ae" stroke-width="7" stroke-linecap="round"><path d="M28 43L12 28M26 49L7 48M28 55L13 65M71 43L87 28M73 49L92 48M71 55L86 65"/></g><ellipse cx="50" cy="48" rx="29" ry="25" fill="#ffdae8" stroke="#efa8c6" stroke-width="2"/><ellipse cx="38" cy="46" rx="4" ry="5" fill="#453347"/><ellipse cx="63" cy="46" rx="4" ry="5" fill="#453347"/><circle cx="39" cy="44" r="1.5" fill="white"/><circle cx="64" cy="44" r="1.5" fill="white"/><ellipse cx="30" cy="55" rx="6" ry="3" fill="#f79abc"/><ellipse cx="72" cy="55" rx="6" ry="3" fill="#f79abc"/><path d="M44 54q6 8 12 0" fill="none" stroke="#895069" stroke-width="2.5" stroke-linecap="round"/></svg>